<?xml version="1.0" standalone="no"?><!DOCTYPE svg PUBLIC "-//W3C//DTD SVG 1.1//EN" "http://www.w3.org/Graphics/SVG/1.1/DTD/svg11.dtd"><svg t="1616490382117" class="icon" viewBox="0 0 1024 1024" version="1.1" xmlns="http://www.w3.org/2000/svg" p-id="2774" width="128" height="128" xmlns:xlink="http://www.w3.org/1999/xlink"><defs><style type="text/css"></style></defs><path d="M922.927 69.616c0 0-338.84 5.262-556.329 279.762-12.796 16.149-24.651 31.795-35.635 46.941-6.47 8.923-14.337 103.096-14.337 103.096s-8.231-7.52-13.061-18.187c-6.188-13.672-9.314-31.245-9.314-31.245-122.428 199.469-87.789 304.04-87.789 304.04-9.631 24.401-28.961 36.94-55.082 91.5-26.122 54.559-23.991 106.103-23.991 106.103-0.236 10.14 3.42 11.097 8.205 2.148 0 0 27.781-53.094 50.425-88.36 14.522-22.617 57.354-76.723 57.354-76.723s69.824 3.352 155.024-19.892c-7.048-3.247-30.891-9.133-47.7-17.618-15.893-8.022-24.985-18.755-24.985-18.755l301.531-69.335c42.725-24.992 80.636-56.832 111.868-94.342C898.913 376.83 938.369 86.763 938.369 86.763 939.97 76.746 933.045 68.964 922.927 69.616zM620.055 372.917c0 0-141.59 124.225-212.004 191.286-70.414 67.062-164.678 223.92-164.678 223.92l-36.343-34.1c0 0 26.689-64.789 128.903-189.82 102.214-125.03 277.239-201.595 277.239-201.595C635.889 351.313 639.078 356.15 620.055 372.917z" fill="#5FB86C" p-id="2775"></path></svg>